<svg id="drawkit-daily-life-vector-illustration-01" xmlns="http://www.w3.org/2000/svg" xmlns:xlink="http://www.w3.org/1999/xlink" width="1011.89" height="936.172" viewBox="0 0 1011.89 936.172">
  <defs>
    <clipPath id="clip-path">
      <path id="Path_10" data-name="Path 10" d="M740.1,352.23s-3.23,41.78,13.5,54.59L708.06,406s1.07-46.27,0-53.75Z" fill="#ffb3a4"/>
    </clipPath>
  </defs>
  <g id="NOTES" transform="translate(-89.29 -127.75)">
    <rect id="Rectangle_65" data-name="Rectangle 65" width="42.53" height="42.53" transform="translate(947.33 223.55)" fill="#fff4de"/>
    <rect id="Rectangle_66" data-name="Rectangle 66" width="4.57" height="10.68" transform="translate(966.31 218.31)" fill="#f1b104"/>
    <path id="Path_1" data-name="Path 1" d="M920.9,223.55v86.39a14.55,14.55,0,0,1-14.55,14.55H831.57a14.53,14.53,0,0,0,13.82-14.52V223.55Z" fill="#d6eaf2"/>
    <rect id="Rectangle_67" data-name="Rectangle 67" width="4.57" height="10.68" transform="translate(878.55 218.31)" fill="#f1b104"/>
    <line id="Line_1" data-name="Line 1" x2="44.72" transform="translate(859.88 244.43)" fill="#fff" stroke="#639ad6" stroke-miterlimit="10" stroke-width="3"/>
    <line id="Line_2" data-name="Line 2" x2="44.72" transform="translate(859.88 255.52)" fill="#fff" stroke="#639ad6" stroke-miterlimit="10" stroke-width="3"/>
    <line id="Line_3" data-name="Line 3" x2="44.72" transform="translate(859.88 266.6)" fill="#fff" stroke="#639ad6" stroke-miterlimit="10" stroke-width="3"/>
    <line id="Line_4" data-name="Line 4" x2="44.72" transform="translate(859.88 277.69)" fill="#fff" stroke="#639ad6" stroke-miterlimit="10" stroke-width="3"/>
    <line id="Line_5" data-name="Line 5" x2="44.72" transform="translate(859.88 288.78)" fill="#fff" stroke="#639ad6" stroke-miterlimit="10" stroke-width="3"/>
  </g>
  <g id="CHAIR" transform="translate(-89.29 -127.75)">
    <path id="Path_2" data-name="Path 2" d="M638.11,781.58l-56.36,273.71h5.39l75.41-273.64" fill="#d6eaf2"/>
    <path id="Path_3" data-name="Path 3" d="M837.98,775.12l57.47,280.17h-5.22L814.89,781.53" fill="#d6eaf2"/>
    <path id="Path_4" data-name="Path 4" d="M759.71,781.58l56.35,273.71h-5.39L735.26,781.65" fill="#d6eaf2"/>
    <path id="Path_5" data-name="Path 5" d="M899.52,647.15l-34,101.05a51.65,51.65,0,0,1-49,35.18H624a51.66,51.66,0,0,1-49-35.18l-28-83.12a22.36,22.36,0,0,1,21.19-29.49h21.55A20.37,20.37,0,0,0,610,618.05l12.56-89.15a43.14,43.14,0,0,1,42.72-37.13H838.62a43.15,43.15,0,0,1,42.73,49.13l-10.78,76.92A15.6,15.6,0,0,0,886,635.59h5.2a8.76,8.76,0,0,1,8.32,11.56Z" fill="#d6eaf2"/>
    <path id="Path_6" data-name="Path 6" d="M885,634.51H870.76a44.31,44.31,0,0,0-42.31,30l-24.39,67.76a46.78,46.78,0,0,1-44.32,31.85H582.3" fill="none" stroke="#fff" stroke-miterlimit="10" stroke-width="3"/>
  </g>
  <g id="WOMAN" transform="translate(-89.29 -127.75)">
    <g id="HAIR">
      <path id="Path_7" data-name="Path 7" d="M733.78,264.85c43.81,1,25.92,47.06,50.78,55.13,17.6,5.71,39.74,14.12,39.27,49.43-.39,29.13-2.92,33.19,19.31,45.63,30.46,17,22.24,74.3-39.17,72.26" fill="none" stroke="#41465a" stroke-miterlimit="10" stroke-width="3"/>
      <path id="Path_8" data-name="Path 8" d="M667,298c1.07-2.92,10-41.52,68.17-34.72,43.52,5.09,26,54.32,46.6,61.27,15.62,5.26,39.63,13.25,37.06,48.47-2.12,29.05-4.89,33,16.56,46.69,29.4,18.84,17.78,75.5-43.4,69.8S639.24,486,635.1,474.14c-3-8.7-28.87-60.19,8.76-82.49,11.32-6.71,32.22-14.86,30-27.9C669.36,337.35,655.78,328.58,667,298Z" fill="#252954"/>
    </g>
    <g id="NECK">
      <path id="Path_9" data-name="Path 9" d="M740.1,352.23s-3.23,41.78,13.5,54.59L708.06,406s1.07-46.27,0-53.75Z" fill="#ffb3a4"/>
      <g id="Group_1" data-name="Group 1" clip-path="url(#clip-path)">
        <ellipse id="Ellipse_16" data-name="Ellipse 16" cx="31.25" cy="22.83" rx="31.25" ry="22.83" transform="translate(687.04 340.58)" fill="#242854"/>
      </g>
    </g>
    <g id="HEAD">
      <path id="Path_11" data-name="Path 11" d="M751.52,336.94s-9.12,39.82-41.94,38.42c-21.82-.93-33.1-38.58-34.69-56.61-1.33-15.05,18.29-26.62,32.66-23.57,17.7,3.76,18.66,33.13,37.26,31.42Z" fill="#ffb3a4"/>
      <path id="Path_12" data-name="Path 12" d="M698.38,321.31a126.245,126.245,0,0,0-22,7.84,63.183,63.183,0,0,1-2.27-11.4c-1-11,9.21-20.11,20.37-23.06,1.17.38,2.38.8,3.65,1.27C703.9,298.09,694.7,309.13,698.38,321.31Z" fill="#ea786c"/>
    </g>
    <g id="HAIR-2" data-name="HAIR">
      <path id="Path_13" data-name="Path 13" d="M705.28,294.42c6.07,2.24-7.34,14-4.41,27a370.207,370.207,0,0,0-38.07,10.37s-11.49-17.65-2.41-29.68S685.77,287.22,705.28,294.42Z" fill="#252954"/>
    </g>
    <circle id="Ellipse_17" data-name="Ellipse 17" cx="11.03" cy="11.03" r="11.03" transform="translate(734.02 316.81)" fill="#ffb3a4"/>
    <path id="LEFT_HAND" data-name="LEFT HAND" d="M652.43,427.49c14.9-7.52,31.16,2.67,23.1,26.36-5.84,17.15-57.95,118.46-63.86,127.26C575.78,601.19,435,578.4,435,578.4s-19.58,8.35-25.26,8.42c-2.49,0-17.64-2.84-17.64-2.84s-.49-1.75,1.84-3.93,18.62.28,12.84-5c-2.57-2.33-16,2.15-22,7.47s-8.55.81-8.55.81,5.93-10.06,8-11.84,15.53-9.16,24.48-10c6.49-.61,22,1.21,30.08,3.52,31.44-6.1,95.64-14.53,137.32-12.06C576.05,553,619.33,444.2,652.43,427.49Z" fill="#ffb3a4"/>
    <path id="TORSO" d="M751.41,392.09s9.6,17.51,62.3,35.6c0,0-.19,22.66-8.74,52.46-13.53,47.16-31,113.1-30.74,139.07,0,0-56.83,16.37-115.45,0,0,0,.44-78.68-4.55-82.24s-17.88-36.56-13.61-52.93,21.27-59.12,21.27-59.12,34.79-10.41,37.77-31.06a205.407,205.407,0,0,0,51.75-1.78Z" fill="#fff4de"/>
    <g id="LEGS">
      <g id="LEFT_LEG" data-name="LEFT LEG">
        <g id="FOOT">
          <path id="Path_14" data-name="Path 14" d="M456.27,921c-9.1,33.83-38.57,66.21-36.75,73.48s13.17,16.18,10.2,27.64c-2.08,8-18.74,4.12-31.65,10.55s-8.68,13.11-29.42,13.83-38.21,0-38.21,0,.36-8,9.82-9.82,40.34-20,49.8-56.75c8.76-34,11.64-58.93,11.64-58.93Z" fill="#ffb3a4"/>
          <path id="Path_15" data-name="Path 15" d="M456.27,921c-2.69,10-7.38,19.84-12.1,29-21.08-1.56-35.62-6.71-45.16-11.38,1.93-11,2.69-17.57,2.69-17.57Z" fill="#3a193f"/>
        </g>
        <path id="PANT" d="M659.2,609.63l-14.86,14.92c-5.46,1.45-153.51,48.38-173.52,75.66S385.7,925.73,385.7,925.73s27.64,19.41,94.59,12.1c0,0,38.18-79.74,43.64-189.24,0,0,169.15,11.65,193.89-29.1s3.67-102.22,3.67-102.22S677.94,615.34,659.2,609.63Z" fill="#a1cbe2"/>
        <g id="SLIPPER">
          <rect id="Rectangle_68" data-name="Rectangle 68" width="117.5" height="10.23" rx="4.87" transform="translate(314.89 1046.85)" fill="#64baaa"/>
          <path id="Path_16" data-name="Path 16" d="M384.73,1046.85s-13.58-15.87-16.13-31.53c-.9-5.54-18.12,2.49-27.8,6.47-26.31,10.81-20.8,25.06-20.8,25.06Z" fill="#64baaa"/>
        </g>
      </g>
      <g id="RIGHT_LEG" data-name="RIGHT LEG">
        <g id="FOOT-2" data-name="FOOT">
          <path id="Path_17" data-name="Path 17" d="M580.17,922.52c6.51,14.22,25.58,61.54,26,77.42.68,23.38-40.69,43.35-43.49,45.68-4.65,3.87.85,6.86.85,6.86s77.35-8.8,86-12.8-11.27-26.08-13.28-42.32.88-61.34-2.69-81.43Z" fill="#ffb3a4"/>
          <path id="Path_18" data-name="Path 18" d="M635.51,945.64c-11.81,3.87-27.24,8.11-42,9.68-5.11-13.69-10.46-26.5-13.35-32.8l53.45-6.59C634.94,923.33,635.38,934.14,635.51,945.64Z" fill="#3a193f"/>
        </g>
        <path id="PANT-2" data-name="PANT" d="M774.32,609.63s47.9,84.76,12.62,126.94C748.85,782.12,590.15,765,590.15,765s51.28,55.63,58.92,175.31c0,0-52.43,9.83-84.42,1.46,0,0-46.06-154-49.82-197.14C510.11,690.39,685.08,654,685.08,654l7.07-39S728.19,620.13,774.32,609.63Z" fill="#a1cbe2"/>
        <g id="SLIPPER-2" data-name="SLIPPER">
          <rect id="Rectangle_69" data-name="Rectangle 69" width="117.5" height="10.23" rx="4.87" transform="translate(543.632 1053.769) rotate(-7.03)" fill="#64baaa"/>
          <path id="Path_19" data-name="Path 19" d="M612.89,1045.26s-10-24-34.34-21-29.9,28.93-29.9,28.93Z" fill="#64baaa"/>
        </g>
      </g>
    </g>
    <g id="RIGHT_HAND" data-name="RIGHT HAND">
      <path id="Path_20" data-name="Path 20" d="M853.8,591.24c-27.29,17.31-160-36.57-160-36.57s-8,11.51-16.83,11.51-17-3.44-21.6.12-9.4,9.34-12.92,9.85A25.181,25.181,0,0,1,629.88,575s3-5.34,6.15-10.48c-2.81,1.89-6.63,6.1-8.76,7.75a4.89,4.89,0,0,1-6,.23s6.16-8.53,8.54-10.79,9.14-5.19,13.42-6.76c4.7-1.82,31.89-12.44,45.31-14,14.24-1.66,130.21,9.73,130.21,9.73s-26.41-65.8-28.12-82.85c-2.52-25.15,8.17-40.42,21-40.44C834.47,427.3,876.43,576.89,853.8,591.24Z" fill="#ffb3a4"/>
      <path id="Path_21" data-name="Path 21" d="M634.16,576.06a.48.48,0,0,1-.28-.08.52.52,0,0,1-.16-.72c.92-1.44,9.07-14.15,11.95-15.58,5-2.46,11.51-5.71,11.51-5.71l.47.94-11.51,5.71c-2.22,1.1-9.08,11.35-11.54,15.2A.51.51,0,0,1,634.16,576.06Z" fill="#db7800"/>
      <path id="Path_22" data-name="Path 22" d="M639.88,576.06a.52.52,0,0,1-.43-.81c.32-.48,7.95-11.62,10.87-13.06,5-2.47,11.51-5.71,11.51-5.71l.47.93s-6.52,3.25-11.51,5.71c-2.23,1.1-8.32,9.55-10.48,12.72a.53.53,0,0,1-.43.22Z" fill="#db7800"/>
    </g>
  </g>
  <g id="TABLE" transform="translate(-89.29 -127.75)">
    <rect id="Rectangle_70" data-name="Rectangle 70" width="1011.89" height="21.69" transform="translate(89.29 595.72)" fill="#fff4de"/>
    <rect id="Rectangle_71" data-name="Rectangle 71" width="126" height="15.21" transform="translate(947.14 982.06)" fill="#f4e8ce"/>
    <rect id="Rectangle_72" data-name="Rectangle 72" width="91.13" height="20.16" transform="translate(964.49 618.13)" fill="#fff4de"/>
    <path id="Path_23" data-name="Path 23" d="M1090.89,1057.07h0a9.26,9.26,0,0,1-9.11-7.58l-69.63-378.84a2.13,2.13,0,0,0-4.19,0l-69.64,378.84a9.25,9.25,0,0,1-9.11,7.58h0a9.26,9.26,0,0,1-9.11-10.93l75.1-408.56h29.7l75.1,408.56a9.25,9.25,0,0,1-9.11,10.93Z" fill="#fff4de"/>
    <rect id="Rectangle_73" data-name="Rectangle 73" width="126" height="15.21" transform="translate(117.51 982.06)" fill="#f4e8ce"/>
    <rect id="Rectangle_74" data-name="Rectangle 74" width="91.13" height="20.16" transform="translate(134.85 618.13)" fill="#fff4de"/>
    <path id="Path_24" data-name="Path 24" d="M261.26,1057.07h0a9.26,9.26,0,0,1-9.11-7.58L182.51,670.66a2.13,2.13,0,0,0-4.19,0l-69.63,378.83a9.26,9.26,0,0,1-9.11,7.58h0a9.25,9.25,0,0,1-9.11-10.93l75.09-408.56h29.71l75.1,408.56a9.26,9.26,0,0,1-9.11,10.93Z" fill="#fff4de"/>
  </g>
  <g id="MESSAGE_ICON" data-name="MESSAGE ICON" transform="translate(-89.29 -127.75)">
    <path id="Path_25" data-name="Path 25" d="M370.71,414.26c5.32,0,9-5.18,9-10.63V373.11A10.72,10.72,0,0,0,369,362.38H299.51a10.72,10.72,0,0,0-10.72,10.73v30.52a10.72,10.72,0,0,0,10.72,10.72h40.73c10,0,15.34,16,15.34,16S359,414.26,370.71,414.26Z" fill="#fff4de"/>
    <path id="Path_51" data-name="Path 51" d="M4,0A4,4,0,1,1,0,4,4,4,0,0,1,4,0Z" transform="translate(310.38 384.1)" fill="#4c8076"/>
    <path id="Path_50" data-name="Path 50" d="M4,0A4,4,0,1,1,0,4,4,4,0,0,1,4,0Z" transform="translate(330.24 384.36)" fill="#4c8076"/>
    <circle id="Ellipse_20" data-name="Ellipse 20" cx="4" cy="4" r="4" transform="translate(350.1 384.36)" fill="#4c8076"/>
  </g>
  <g id="LAPTOP" transform="translate(-89.29 -127.75)">
    <path id="Path_26" data-name="Path 26" d="M506.86,451.9H344.25a11.13,11.13,0,0,0-10.45,15l41,111.4H565.22L522.82,463a17,17,0,0,0-15.96-11.1Z" fill="#4c8076"/>
    <path id="Path_27" data-name="Path 27" d="M503.66,457.55H345.1a10.85,10.85,0,0,0-10.18,14.6l40,108.63H560.57L519.23,468.41A16.6,16.6,0,0,0,503.66,457.55Z" fill="#64baaa"/>
    <path id="Path_28" data-name="Path 28" d="M374.43,578.27H686.35a15.94,15.94,0,0,1,15.94,15.94v.43H390.37a15.94,15.94,0,0,1-15.94-15.94Z" fill="#4c8076"/>
    <path id="Path_49" data-name="Path 49" d="M15.76,0c8.7,0,15.76,8.708,15.76,19.45S24.464,38.9,15.76,38.9,0,30.192,0,19.45,7.056,0,15.76,0Z" transform="translate(417.362 517.87) rotate(-48)" fill="#4c8076"/>
    <rect id="Rectangle_75" data-name="Rectangle 75" width="13.29" height="4.77" transform="translate(592.19 584.13)" fill="#3a193f"/>
    <rect id="Rectangle_76" data-name="Rectangle 76" width="13.29" height="4.77" transform="translate(617.58 584.13)"/>
  </g>
  <g id="CUP" transform="translate(-89.29 -127.75)">
    <path id="Path_29" data-name="Path 29" d="M948.67,549.85h-5.14V539.44H896.62v47.38a8.89,8.89,0,0,0,8.9,8.9h29.11a8.9,8.9,0,0,0,8.9-8.9V570.67h5.14a10.41,10.41,0,1,0,0-20.82Zm3.66,14.29a5.46,5.46,0,0,1-3.88,1.6h-4.92v-11h4.92a5.48,5.48,0,0,1,3.88,9.36Z" fill="#fff" stroke="#64baaa" stroke-miterlimit="10" stroke-width="3"/>
    <path id="Path_30" data-name="Path 30" d="M923.65,535c-2.47-2.53-15.41-11-12.52-23.19s21.21-9.55,20.65-23.17c-.48-11.55-10.6-6.92-12.82-2.71,0,0,1.34-15.24,15.26-10.15,23.5,8.59-3.78,33-11.58,39.75C915.48,521.74,923.65,535,923.65,535Z" fill="#fff4de"/>
    <path id="Path_31" data-name="Path 31" d="M940.08,502.33s-3,10.29-15.21,15.35C924.87,517.68,943.61,517.68,940.08,502.33Z" fill="#fff4de"/>
  </g>
  <g id="LAMP" transform="translate(-89.29 -127.75)">
    <path id="Path_32" data-name="Path 32" d="M1075.25,595.72s35.16-192.63-140.94-219.52" fill="none" stroke="#64baaa" stroke-miterlimit="10" stroke-width="3"/>
    <path id="Path_33" data-name="Path 33" d="M1075.94,594.65H982.2c6.54-15.17,25-26.11,46.87-26.11S1069.4,579.48,1075.94,594.65Z" fill="#64baaa"/>
    <path id="Path_34" data-name="Path 34" d="M1075.94,594.65h-11.8c-6.21-14.39-23.77-24.77-44.47-24.77a38.638,38.638,0,0,0-4.32.16,63.106,63.106,0,0,1,13.72-1.5C1050.88,568.54,1069.4,579.48,1075.94,594.65Z" fill="#4c8076"/>
    <path id="Path_35" data-name="Path 35" d="M935.82,378c-.85,3.81-3.85,6.79-8.11,8.6-4.88,2.08-11.42,2.63-18.22,1.12S897,383,893.43,379c-3.1-3.44-4.57-7.41-3.73-11.22,1.81-8.18,13.6-12.53,26.34-9.72S937.63,369.8,935.82,378Z" fill="#64baaa"/>
    <path id="Path_36" data-name="Path 36" d="M935.82,378c-.79,3.57-3.49,6.42-7.35,8.26a10.28,10.28,0,0,0,3.63-5.68c1.69-7.64-6.57-15.95-18.44-18.58-11.2-2.47-21.62,1-24.19,7.8a10.2,10.2,0,0,1,.23-2c1.81-8.19,13.6-12.54,26.34-9.73S937.63,369.81,935.82,378Z" fill="#64baaa"/>
    <path id="Path_37" data-name="Path 37" d="M925.13,384.69a27.63,27.63,0,0,1-28.56-6.32c-1.65-3.6,8.09-4.86,15.68-3.18S928.27,382.79,925.13,384.69Z" fill="#4c8076"/>
  </g>
  <g id="SHELF" transform="translate(-89.29 -127.75)">
    <path id="SHADOW" d="M239.07,296.53H572.4v30.52L239,298.88C238.12,298.79,238.18,296.53,239.07,296.53Z" fill="#fff4de"/>
    <g id="BOOKS">
      <path id="Path_54" data-name="Path 54" d="M5.15,0H19.17a5.15,5.15,0,0,1,5.15,5.15V120a5.15,5.15,0,0,1-5.15,5.15H5.15A5.15,5.15,0,0,1,0,120V5.15A5.15,5.15,0,0,1,5.15,0Z" transform="translate(517.29 145.58)" fill="#fff" stroke="#64baaa" stroke-width="3"/>
      <path id="Path_52" data-name="Path 52" d="M5.03,0H21.77A5.03,5.03,0,0,1,26.8,5.03V112.01a5.03,5.03,0,0,1-5.03,5.03H5.03A5.03,5.03,0,0,1,0,112.01V5.03A5.03,5.03,0,0,1,5.03,0Z" transform="translate(488.99 156.17)" fill="#64baaa"/>
      <rect id="Rectangle_79" data-name="Rectangle 79" width="13.9" height="145.46" rx="4.69" transform="translate(475.09 127.75)" fill="#d6eaf2"/>
      <path id="Path_53" data-name="Path 53" d="M5.14,0H17.18a5.14,5.14,0,0,1,5.14,5.14v96.8a5.14,5.14,0,0,1-5.14,5.14H5.14A5.14,5.14,0,0,1,0,101.94V5.14A5.14,5.14,0,0,1,5.14,0Z" transform="translate(451.77 164.65)" fill="#fff" stroke="#64baaa" stroke-width="3"/>
      <path id="Path_38" data-name="Path 38" d="M410.26,273.21H390.78l48.73-130.57a2.66,2.66,0,0,1,2.48-1.73h13.82a2.69,2.69,0,0,1,2.48,3.64Z" fill="#64baaa"/>
    </g>
    <path id="SHELF-2" data-name="SHELF" d="M0,0H331.65V21.88H0Z" transform="translate(239.8 273.21)" fill="#fff" stroke="#64baaa" stroke-width="3"/>
    <g id="PLANT">
      <path id="Path_39" data-name="Path 39" d="M273.32,224.7H357v9.19a39.33,39.33,0,0,1-39.33,39.33h-5.06a39.33,39.33,0,0,1-39.33-39.33V224.7Z" fill="#64baaa"/>
      <path id="Path_40" data-name="Path 40" d="M348.63,224.7h-62s-18.14,14.79-28.49,2.66c-7.5-8.78,28.38-9.17,28.38-9.17l1.08-.38s-15.39-32.32-.84-37.71c10-3.73,12.48,23.65,13,32.54,5.29-2.21,15.61-5.4,16.5,3,0,0,1.15-34.59,15.64-31.29,12.05,2.75-5.82,35.26-5.82,35.26l1.25.76s33.11-24.18,41.23-18.56C374.7,206.06,348.63,224.7,348.63,224.7Z" fill="#a1cbe2"/>
      <path id="Path_41" data-name="Path 41" d="M296.12,224.7s.64-29.82,11.87-29-4.42,29-4.42,29Z" fill="#d6eaf2"/>
      <path id="Path_42" data-name="Path 42" d="M296.12,224.7s-11.26-28.14-26.52-20.93c-14.91,7,17.16,20.93,17.16,20.93Z" fill="#d6eaf2"/>
      <path id="Path_43" data-name="Path 43" d="M319.26,224.7s10.11-25.35,26.14-22.94-19.79,22.94-19.79,22.94Z" fill="#d6eaf2"/>
      <path id="Path_44" data-name="Path 44" d="M335.75,224.7s31.36-15.79,37-6.27S335.75,224.7,335.75,224.7Z" fill="#d6eaf2"/>
    </g>
  </g>
  <path id="Path_45" data-name="Path 45" d="M706.47,358.91s8.26.94,14.88-8.93" transform="translate(-89.29 -127.75)" fill="none" stroke="#3a1a3f" stroke-linecap="round" stroke-linejoin="round" stroke-width="3"/>
  <path id="Path_46" data-name="Path 46" d="M739.34,330.59s0-9.12,8-9" transform="translate(-89.29 -127.75)" fill="none" stroke="#e2564b" stroke-linecap="round" stroke-linejoin="round" stroke-width="3"/>
  <line id="Line_6" data-name="Line 6" x2="5.33" y2="2.49" transform="translate(651.9 197.91)" fill="none" stroke="#e2564b" stroke-linecap="round" stroke-linejoin="round" stroke-width="3"/>
  <circle id="Ellipse_22" data-name="Ellipse 22" cx="4.05" cy="4.05" r="4.05" transform="translate(660.26 204.17)" fill="#ffcdc5"/>
  <path id="Path_47" data-name="Path 47" d="M701.02,331.92v15.63l4.17,1.69" transform="translate(-89.29 -127.75)" fill="none" stroke="#e2564b" stroke-linecap="round" stroke-linejoin="round" stroke-width="3"/>
  <path id="Path_48" data-name="Path 48" d="M708.06,318.44s4.57-3.54,12.46,0" transform="translate(-89.29 -127.75)" fill="none" stroke="#3a1a3f" stroke-linecap="round" stroke-linejoin="round" stroke-width="3"/>
  <ellipse id="Ellipse_23" data-name="Ellipse 23" cx="2.75" cy="3.56" rx="2.75" ry="3.56" transform="matrix(0.985, -0.173, 0.173, 0.985, 622.474, 198.872)" fill="#242854"/>
  <ellipse id="Ellipse_24" data-name="Ellipse 24" cx="2.75" cy="3.56" rx="2.75" ry="3.56" transform="translate(597.026 205.484) rotate(-13.24)" fill="#242854"/>
  <path id="PANT-3" data-name="PANT" d="M564.65,941.76s-46.06-154-49.82-197.14C510.11,690.39,685.08,654,685.08,654" transform="translate(-89.29 -127.75)" fill="none" stroke="#639ad6" stroke-miterlimit="10" stroke-width="3"/>
</svg>
